HIERARCHY
ROOT Hips
{
	OFFSET 0.000000 0.000000 0.000000
	CHANNELS 6 Xposition Yposition Zposition Zrotation Xrotation Yrotation
	JOINT LeftUpLeg
	{
		OFFSET 4.065250 -3.907320 0.417110
		CHANNELS 3 Zrotation Xrotation Yrotation
		JOINT LeftLeg
		{
			OFFSET 0.000230 -18.482100 0.003670
			CHANNELS 3 Zrotation Xrotation Yrotation
			JOINT LeftFoot
			{
				OFFSET -0.001720 -15.289800 -0.026290
				CHANNELS 3 Zrotation Xrotation Yrotation
				JOINT LeftToeBase
				{
					OFFSET 0.367430 -3.191310 5.542870
					CHANNELS 3 Zrotation Xrotation Yrotation
					JOINT LeftToeBase2
					{
						OFFSET 0.087510 0.048490 1.367580
						CHANNELS 3 Zrotation Xrotation Yrotation
						JOINT LeftToeBase3
						{
							OFFSET 0.074840 0.067850 1.167070
						}
					}
				}
			}
		}
	}
	JOINT RightUpLeg
	{
		OFFSET -4.065260 -3.907310 0.417120
		CHANNELS 3 Zrotation Xrotation Yrotation
		JOINT RightLeg
		{
			OFFSET -0.000290 -18.482100 0.004400
			CHANNELS 3 Zrotation Xrotation Yrotation
			JOINT RightFoot
			{
				OFFSET 0.001600 -15.289800 -0.025690
				CHANNELS 3 Zrotation Xrotation Yrotation
				JOINT RightToeBase
				{
					OFFSET -0.354200 -3.191090 5.543860
					CHANNELS 3 Zrotation Xrotation Yrotation
					JOINT RightToeBase2
					{
						OFFSET -0.084240 0.048540 1.367780
						CHANNELS 3 Zrotation Xrotation Yrotation
						JOINT RightToeBase3
						{
							OFFSET -0.072050 0.067900 1.167250
						}
					}
				}
			}
		}
	}
	JOINT Spine
	{
		OFFSET 0.000010 4.465170 -0.102240
		CHANNELS 3 Zrotation Xrotation Yrotation
		JOINT Spine1
		{
			OFFSET 0.000010 4.462120 -0.182400
			CHANNELS 3 Zrotation Xrotation Yrotation
			JOINT Spine2
			{
				OFFSET 0.000000 4.379370 -0.881000
				CHANNELS 3 Zrotation Xrotation Yrotation
				JOINT Spine3
				{
					OFFSET 0.000010 4.682860 0.214140
					CHANNELS 3 Zrotation Xrotation Yrotation
					JOINT Neck
					{
						OFFSET 0.000000 1.769640 0.824540
						CHANNELS 3 Zrotation Xrotation Yrotation
						JOINT Head
						{
							OFFSET 0.000000 1.696100 0.931450
							CHANNELS 3 Zrotation Xrotation Yrotation
							JOINT Head_End
							{
								OFFSET 0.000010 7.837500 1.526030
							}
						}
					}
					JOINT LeftShoulder
					{
						OFFSET 1.193810 -0.758810 -0.027680
						CHANNELS 3 Zrotation Xrotation Yrotation
						JOINT LeftArm
						{
							OFFSET 5.187790 -0.000020 0.000010
							CHANNELS 3 Zrotation Xrotation Yrotation
							JOINT LeftForeArm
							{
								OFFSET 12.736400 -0.000040 0.000020
								CHANNELS 3 Zrotation Xrotation Yrotation
								JOINT LeftHand
								{
									OFFSET 9.214520 -0.000020 0.000010
									CHANNELS 3 Zrotation Xrotation Yrotation
								}
							}
						}
					}
					JOINT RightShoulder
					{
						OFFSET -1.193810 -0.758810 -0.027670
						CHANNELS 3 Zrotation Xrotation Yrotation
						JOINT RightArm
						{
							OFFSET -5.187790 0.000010 -0.000010
							CHANNELS 3 Zrotation Xrotation Yrotation
							JOINT RightForeArm
							{
								OFFSET -12.736400 0.000030 -0.000020
								CHANNELS 3 Zrotation Xrotation Yrotation
								JOINT RightHand
								{
									OFFSET -9.214520 0.000020 -0.000010
									CHANNELS 3 Zrotation Xrotation Yrotation
								}
							}
						}
					}
				}
			}
		}
	}
}
MOTION
Frames: 7
Frame Time: 0.016667
18.305868 38.184109 63.755089 3.063981 -12.905063 18.585087 4.796570 -18.975546 1.535915  -0.664849 26.617489 0.192195  -14.244008 4.384682 -2.278597  0.000000 -0.000000 0.000000  -0.000000 0.000000 -0.000000   2.096663 -1.531386 -5.631494  -1.647673 51.126877 0.776026  -2.278938 -24.349152 2.853647  -0.000000 0.000000 0.000000  -0.000000 0.000000 -0.000000   1.302714 2.856599 4.676193  0.085310 3.219501 2.699243  -0.541493 3.185752 2.646213  -0.850077 6.556312 4.877884  -5.029014 12.906122 30.606609  -1.948448 -18.580933 31.364614   -3.324064 0.941811 4.847863  -73.031265 24.175436 25.655943  15.540097 -13.638382 -77.384338  1.657644 10.184336 -8.914419  -8.842305 -0.417867 8.257931  54.057686 29.897736 19.522768  -10.348907 -13.058968 98.811623  -4.404287 13.439647 -0.436802 
18.675676 38.037613 64.651520 3.263874 -13.296270 18.275782 4.203680 -18.260363 2.781248  -0.736330 29.006901 0.204305  -8.765858 3.442936 -4.600382  0.000000 -0.000000 0.000000  -0.000000 0.000000 -0.000000   1.424805 -0.724653 -5.944105  -1.794447 53.491104 0.896530  -1.698288 -24.620678 4.097648  -0.000000 0.000000 0.000000  -0.000000 0.000000 -0.000000   1.152362 2.820263 4.370355  0.021925 3.160825 2.524814  -0.566717 3.062731 2.465135  -0.924106 6.267015 4.555607  -5.086725 13.529449 30.445311  -1.640784 -18.313826 31.193821   -2.655615 0.866372 5.783982  -73.026215 23.400665 26.965500  15.561398 -13.757292 -77.803459  -1.404541 8.215264 -7.756701  -9.047955 -0.503150 8.580555  53.307365 32.643974 20.857386  -10.258609 -13.466967 101.022820  3.217891 21.623325 -2.624205 
19.028711 37.850014 65.499779 3.700505 -13.826188 18.075390 3.443206 -17.550961 4.370873  -0.837553 32.236320 0.218803  -1.850819 0.212719 -6.025643  0.000000 -0.000000 0.000000  -0.000000 0.000000 -0.000000   0.304465 -0.258782 -6.427090  -2.020559 56.679325 1.087612  -0.967210 -24.380323 5.916174  -0.000000 0.000000 0.000000  -0.000000 0.000000 -0.000000   0.909123 3.005074 4.079155  -0.073471 3.193587 2.358384  -0.608760 2.999016 2.288625  -0.992639 6.031181 4.242527  -5.317800 13.461407 30.326811  -1.122535 -17.892836 30.961721   -2.363415 0.792628 6.543745  -72.311272 22.285095 27.407566  15.567502 -13.792196 -77.926689  -4.122088 6.221363 -6.922098  -9.041000 -0.544855 8.901334  52.872242 34.664925 21.727621  -10.161708 -13.836967 103.050835  9.250354 26.479385 -4.291878 
19.363113 37.654816 66.295197 4.300178 -14.376170 18.037943 2.687356 -16.857557 5.884010  -0.956553 35.759594 0.246034  3.977432 -3.728287 -6.966705  0.000000 -0.000000 0.000000  -0.000000 0.000000 -0.000000   -1.233848 -0.133690 -6.910469  -2.324311 60.251297 1.355014  0.571186 -23.262600 8.374582  -0.000000 0.000000 0.000000  -0.000000 0.000000 -0.000000   0.610763 3.297945 3.816442  -0.192188 3.281883 2.209333  -0.670982 2.990401 2.126444  -1.082452 5.884852 3.957905  -5.409981 12.935546 29.833336  -0.515504 -17.458633 30.340157   -2.438684 0.718511 7.020599  -71.007217 20.856024 26.952339  15.542899 -13.653812 -77.438538  -6.427094 4.347302 -6.135065  -8.741607 -0.505053 9.131740  52.716915 36.098473 22.114471  -10.067610 -14.151874 104.793839  14.538338 29.356756 -5.515700 
19.678776 37.483215 67.032516 5.040815 -14.851998 18.239292 2.244020 -16.202757 6.848903  -1.073319 38.938812 0.290931  5.374836 -6.982969 -7.375057  0.000000 -0.000000 0.000000  -0.000000 0.000000 -0.000000   -3.288266 -0.437910 -7.255449  -2.720789 63.974964 1.727712  3.434193 -20.825224 11.794104  -0.000000 0.000000 0.000000  -0.000000 0.000000 -0.000000   0.278444 3.615281 3.620938  -0.335397 3.407849 2.099520  -0.765460 3.054714 1.999271  -1.228027 5.906388 3.741879  -4.876897 12.031582 28.498621  0.053883 -17.070936 28.955723   -2.948175 0.639159 7.017292  -69.068069 19.078159 25.448132  15.463408 -13.246139 -75.998528  -7.995680 2.705288 -5.323801  -7.983030 -0.319820 9.144070  52.823296 37.003620 21.926022  -9.979239 -14.418874 106.287880  19.400661 30.005339 -6.361901 
19.972641 37.355412 67.714882 5.767019 -15.187451 18.629349 1.911810 -15.552857 7.523291  -1.179080 41.591969 0.336746  5.275099 -9.770740 -7.632837  0.000000 -0.000000 0.000000  -0.000000 0.000000 -0.000000   -5.563386 -0.969719 -7.437882  -3.174793 67.291298 2.177523  7.283957 -17.179533 15.381090  -0.000000 0.000000 0.000000  -0.000000 0.000000 -0.000000   -0.000102 3.884776 3.458465  -0.472582 3.533589 2.012208  -0.871630 3.155371 1.894270  -1.424693 6.037669 3.568876  -4.316849 10.807711 26.588871  0.787762 -16.652836 26.957279   -3.763858 0.560924 6.676511  -66.805290 17.081982 23.131002  15.317814 -12.610855 -73.742310  -8.848425 1.563863 -4.165653  -6.937294 -0.042800 8.987294  53.233368 37.562355 21.256365  -9.934334 -14.545890 107.003937  23.177263 28.810400 -6.280970 
20.238775 37.304302 68.340958 6.299307 -15.263905 19.208843 1.544603 -14.910958 7.972260  -1.252673 43.317947 0.359293  5.550556 -11.768321 -8.173212  0.000000 -0.000000 0.000000  -0.000000 0.000000 -0.000000   -7.859455 -1.542238 -7.272333  -3.524616 69.345016 2.558713  13.062098 -11.569411 18.761721  -0.000000 0.000000 0.000000  -0.000000 0.000000 -0.000000   -0.115516 3.979262 3.313733  -0.571050 3.612303 1.942236  -0.976427 3.274999 1.809988  -1.697286 6.290538 3.435862  -4.223905 9.142420 24.090721  1.965993 -16.107048 24.230541   -4.849433 0.489677 6.010139  -64.404510 14.926896 20.044569  15.079423 -11.756276 -70.677971  -8.785216 1.036037 -2.168119  -5.645446 0.313944 8.637443  53.986538 37.918175 20.123999  -9.972458 -14.438407 106.397072  25.075125 25.778866 -4.318568 
